<?xml version="1.0" standalone="no"?>
<svg xmlns:xlink="http://www.w3.org/1999/xlink" id="wave" style="transform:rotate(180deg); transition: 0.3s" viewBox="0 0 1440 450" version="1.1" xmlns="http://www.w3.org/2000/svg"><defs><linearGradient id="sw-gradient-0" x1="0" x2="0" y1="1" y2="0"><stop stop-color="rgba(236, 242, 247, 1)" offset="0%"/><stop stop-color="rgba(236, 242, 247, 1)" offset="100%"/></linearGradient></defs><path style="transform:translate(0, 0px); opacity:1" fill="url(#sw-gradient-0)" d="M0,270L240,247.5C480,225,960,180,1440,157.5C1920,135,2400,135,2880,150C3360,165,3840,195,4320,232.5C4800,270,5280,315,5760,315C6240,315,6720,270,7200,225C7680,180,8160,135,8640,112.5C9120,90,9600,90,10080,97.5C10560,105,11040,120,11520,120C12000,120,12480,105,12960,135C13440,165,13920,240,14400,255C14880,270,15360,225,15840,240C16320,255,16800,330,17280,322.5C17760,315,18240,225,18720,217.5C19200,210,19680,285,20160,307.5C20640,330,21120,300,21600,292.5C22080,285,22560,300,23040,255C23520,210,24000,105,24480,52.5C24960,0,25440,0,25920,60C26400,120,26880,240,27360,240C27840,240,28320,120,28800,67.5C29280,15,29760,30,30240,90C30720,150,31200,255,31680,255C32160,255,32640,150,33120,97.5C33600,45,34080,45,34320,45L34560,45L34560,450L34320,450C34080,450,33600,450,33120,450C32640,450,32160,450,31680,450C31200,450,30720,450,30240,450C29760,450,29280,450,28800,450C28320,450,27840,450,27360,450C26880,450,26400,450,25920,450C25440,450,24960,450,24480,450C24000,450,23520,450,23040,450C22560,450,22080,450,21600,450C21120,450,20640,450,20160,450C19680,450,19200,450,18720,450C18240,450,17760,450,17280,450C16800,450,16320,450,15840,450C15360,450,14880,450,14400,450C13920,450,13440,450,12960,450C12480,450,12000,450,11520,450C11040,450,10560,450,10080,450C9600,450,9120,450,8640,450C8160,450,7680,450,7200,450C6720,450,6240,450,5760,450C5280,450,4800,450,4320,450C3840,450,3360,450,2880,450C2400,450,1920,450,1440,450C960,450,480,450,240,450L0,450Z"/></svg>