<?xml version="1.0" standalone="no"?>
<svg xmlns:xlink="http://www.w3.org/1999/xlink" id="wave" style="transform:rotate(0deg); transition: 0.3s" viewBox="0 0 1440 490" version="1.1" xmlns="http://www.w3.org/2000/svg"><defs><linearGradient id="sw-gradient-0" x1="0" x2="0" y1="1" y2="0"><stop stop-color="rgba(236, 242, 247, 1)" offset="0%"/><stop stop-color="rgba(236, 242, 247, 1)" offset="100%"/></linearGradient></defs><path style="transform:translate(0, 0px); opacity:1" fill="url(#sw-gradient-0)" d="M0,245L60,261.3C120,278,240,310,360,285.8C480,261,600,180,720,147C840,114,960,131,1080,171.5C1200,212,1320,278,1440,285.8C1560,294,1680,245,1800,253.2C1920,261,2040,327,2160,310.3C2280,294,2400,196,2520,171.5C2640,147,2760,196,2880,187.8C3000,180,3120,114,3240,147C3360,180,3480,310,3600,375.7C3720,441,3840,441,3960,375.7C4080,310,4200,180,4320,179.7C4440,180,4560,310,4680,326.7C4800,343,4920,245,5040,196C5160,147,5280,147,5400,196C5520,245,5640,343,5760,318.5C5880,294,6000,147,6120,147C6240,147,6360,294,6480,294C6600,294,6720,147,6840,114.3C6960,82,7080,163,7200,163.3C7320,163,7440,82,7560,49C7680,16,7800,33,7920,106.2C8040,180,8160,310,8280,318.5C8400,327,8520,212,8580,155.2L8640,98L8640,490L8580,490C8520,490,8400,490,8280,490C8160,490,8040,490,7920,490C7800,490,7680,490,7560,490C7440,490,7320,490,7200,490C7080,490,6960,490,6840,490C6720,490,6600,490,6480,490C6360,490,6240,490,6120,490C6000,490,5880,490,5760,490C5640,490,5520,490,5400,490C5280,490,5160,490,5040,490C4920,490,4800,490,4680,490C4560,490,4440,490,4320,490C4200,490,4080,490,3960,490C3840,490,3720,490,3600,490C3480,490,3360,490,3240,490C3120,490,3000,490,2880,490C2760,490,2640,490,2520,490C2400,490,2280,490,2160,490C2040,490,1920,490,1800,490C1680,490,1560,490,1440,490C1320,490,1200,490,1080,490C960,490,840,490,720,490C600,490,480,490,360,490C240,490,120,490,60,490L0,490Z"/></svg>