<?xml version="1.0" standalone="no"?>
<svg xmlns:xlink="http://www.w3.org/1999/xlink" id="wave" style="transform:rotate(180deg); transition: 0.3s" viewBox="0 0 1440 200" version="1.1" xmlns="http://www.w3.org/2000/svg"><defs><linearGradient id="sw-gradient-0" x1="0" x2="0" y1="1" y2="0"><stop stop-color="rgba(9, 17, 39, 1)" offset="0%"/><stop stop-color="rgba(9, 17, 39, 1)" offset="100%"/></linearGradient></defs><path style="transform:translate(0, 0px); opacity:1" fill="url(#sw-gradient-0)" d="M0,60L60,70C120,80,240,100,360,90C480,80,600,40,720,26.7C840,13,960,27,1080,50C1200,73,1320,107,1440,120C1560,133,1680,127,1800,113.3C1920,100,2040,80,2160,63.3C2280,47,2400,33,2520,26.7C2640,20,2760,20,2880,30C3000,40,3120,60,3240,76.7C3360,93,3480,107,3600,110C3720,113,3840,107,3960,110C4080,113,4200,127,4320,116.7C4440,107,4560,73,4680,56.7C4800,40,4920,40,5040,50C5160,60,5280,80,5400,100C5520,120,5640,140,5760,143.3C5880,147,6000,133,6120,113.3C6240,93,6360,67,6480,73.3C6600,80,6720,120,6840,133.3C6960,147,7080,133,7200,130C7320,127,7440,133,7560,140C7680,147,7800,153,7920,130C8040,107,8160,53,8280,33.3C8400,13,8520,27,8580,33.3L8640,40L8640,200L8580,200C8520,200,8400,200,8280,200C8160,200,8040,200,7920,200C7800,200,7680,200,7560,200C7440,200,7320,200,7200,200C7080,200,6960,200,6840,200C6720,200,6600,200,6480,200C6360,200,6240,200,6120,200C6000,200,5880,200,5760,200C5640,200,5520,200,5400,200C5280,200,5160,200,5040,200C4920,200,4800,200,4680,200C4560,200,4440,200,4320,200C4200,200,4080,200,3960,200C3840,200,3720,200,3600,200C3480,200,3360,200,3240,200C3120,200,3000,200,2880,200C2760,200,2640,200,2520,200C2400,200,2280,200,2160,200C2040,200,1920,200,1800,200C1680,200,1560,200,1440,200C1320,200,1200,200,1080,200C960,200,840,200,720,200C600,200,480,200,360,200C240,200,120,200,60,200L0,200Z"/></svg>